<?xml version="1.0" encoding="iso-8859-1"?>
<!-- Generator: Adobe Illustrator 19.0.0, SVG Export Plug-In . SVG Version: 6.00 Build 0)  -->
<svg version="1.1" id="Capa_1" xmlns="http://www.w3.org/2000/svg" xmlns:xlink="http://www.w3.org/1999/xlink" x="0px" y="0px"
	 viewBox="0 0 512 512" style="enable-background:new 0 0 512 512;" xml:space="preserve">
<path style="fill:#965353;" d="M430.982,244.503c0,0,44.67-2.799,30.109,70l-0.02-0.039l-14.54-29.08c0,0-45.67,14.561-72.8,14.561
	c-27.131,0-50.96-14.561-50.96-14.561l-21.82,29.1l-0.021,0.02c-14.56-116.48,71.811-110,130.051-110
	C430.982,233.614,430.982,244.503,430.982,244.503z"/>
<path style="fill:#864B4C;" d="M430.982,244.503c0,0,0-10.889,0-40c-9.444,0-19.629-0.168-30.003,0.043c0,29.078,0,25.457,0,39.957
	c0,24,30,13,30,45.398c7.597-2.115,15.553-4.518,15.553-4.518l14.54,29.08l0.02,0.039
	C475.652,241.704,430.982,244.503,430.982,244.503z"/>
<path style="fill:#FFDECF;" d="M446.532,285.384l14.54,29.08l-0.09,0.039v30.02c0,25.271-11.71,47.791-29.99,62.441
	c-13.7,10.98-31.09,17.539-50.01,17.539c-18.921,0-36.311-6.559-50-17.539c-18.29-14.641-30-37.16-30-62.441v-30.02l-0.03-0.02
	l21.82-29.1c0,0,23.829,14.561,50.96,14.561C400.862,299.944,446.532,285.384,446.532,285.384z"/>
<path style="fill:#FFCDBE;" d="M446.532,285.384c0,0-6.276,2-15.553,4.518v54.621c0,25.271-11.71,47.791-29.99,62.441
	c-9.986,8.004-21.938,13.641-35.008,16.121c0.005,0,0.01,0.002,0.014,0.002c1.202,0.227,2.413,0.428,3.632,0.603
	c0.014,0.002,0.025,0.004,0.038,0.006c1.156,0.164,2.321,0.301,3.493,0.416c0.096,0.01,0.191,0.023,0.288,0.031
	c1.071,0.102,2.15,0.174,3.235,0.232c0.187,0.01,0.371,0.029,0.558,0.037c1.241,0.059,2.488,0.09,3.743,0.09
	c18.92,0,36.31-6.559,50.01-17.539c18.28-14.65,29.99-37.17,29.99-62.441v-30.02l0.09-0.039L446.532,285.384z"/>
<g>
	<path style="fill:#E6E9ED;" d="M380.982,424.503v20l-24.99,9.99l-25.01-19.99v-27.539
		C344.671,417.944,362.061,424.503,380.982,424.503z"/>
	<path style="fill:#E6E9ED;" d="M430.992,406.964l-0.01,27.539l-29.99,19.99l-20.01-9.99v-20
		C399.902,424.503,417.292,417.944,430.992,406.964z"/>
</g>
<path id="SVGCleanerId_0" style="fill:#5D9CEC;" d="M440.992,504.5h-120.01h-7.49h-42.51v-39.996c0-16.591,13.42-30.001,30-30.001
	h30l25.01,19.99l24.99-9.99l20.01,9.99l29.99-19.99h30c16.579,0,30,13.41,30,30.001V504.5h-47.49H440.992z"/>
<g>
	<path id="SVGCleanerId_0_1_" style="fill:#5D9CEC;" d="M440.992,504.5h-120.01h-7.49h-42.51v-39.996
		c0-16.591,13.42-30.001,30-30.001h30l25.01,19.99l24.99-9.99l20.01,9.99l29.99-19.99h30c16.579,0,30,13.41,30,30.001V504.5h-47.49
		H440.992z"/>
</g>
<path style="fill:#4A89DC;" d="M460.982,434.503h-30l0,0c16.578,0.002,29.997,13.412,29.997,30.001V504.5h30.003v-39.996
	C490.982,447.913,477.561,434.503,460.982,434.503z"/>
<path style="fill:#656D78;" d="M231.018,324.501l-20-7.139l-120-42.861l-40,20c-5.33-65.33,20-80,20-80l21,10
	C92.018,224.501,231.018,144.501,231.018,324.501z"/>
<path style="fill:#ED5565;" d="M211.018,434.501c16.58,0,30,13.42,30,30.001v39.996h-47.48h-2.51H71.018h-7.49h-42.51v-39.996
	c0-16.581,13.419-30.001,30-30.001H211.018z"/>
<path style="fill:#515760;" d="M139.755,208.042c30.376,5.568,58.615,31.162,61.08,105.684l10.184,3.637l20,7.139
	C231.018,215.427,179.979,201.827,139.755,208.042z"/>
<g>
	<path style="fill:#FFDECF;" d="M171.028,413.811l-0.01,20.69c0,22.091-17.912,40.001-40.001,40.001c-22.091,0-40-17.91-40-40.001
		v-20.699c11.77,6.811,25.43,10.699,40,10.699c14.569,0,28.229-3.889,40.001-10.699L171.028,413.811z"/>
	<path style="fill:#FFDECF;" d="M211.018,317.362v27.17c0,29.619-16.092,55.459-40,69.27c-11.771,6.811-25.432,10.699-40.001,10.699
		c-14.57,0-28.23-3.889-40-10.699c-23.911-13.811-40-39.65-40-69.27v-50.031l40-20L211.018,317.362z"/>
</g>
<path style="fill:#FFCDBE;" d="M181.014,306.251v38.281c0,29.619-16.092,55.459-40,69.27c-7.627,4.412-16.052,7.59-24.999,9.287
	c4.86,0.92,9.872,1.412,15.002,1.412c14.569,0,28.229-3.889,40.001-10.699c23.908-13.811,40-39.65,40-69.27v-27.17L181.014,306.251z
	"/>
<path style="fill:#DA4453;" d="M211.018,434.501h-30.004c16.58,0,30,13.42,30,30.001v39.996h30.004v-39.996
	C241.018,447.921,227.598,434.501,211.018,434.501z"/>
<polygon style="fill:#A0D468;" points="371.014,7.5 371.014,167.511 271.024,167.511 221.014,187.5 221.014,167.511 
	181.014,167.511 181.014,7.5 "/>
<rect x="301.02" y="474.5" style="fill:#E6E9ED;" width="49.998" height="30"/>
<path d="M180.999,175.01h32.5v12.49c0,2.49,1.23,4.81,3.29,6.21c1.25,0.84,2.7,1.29,4.21,1.29c0.96,0,1.9-0.181,2.78-0.54
	l48.66-19.45H371c1.97,0,3.899-0.8,5.3-2.19c1.4-1.399,2.2-3.329,2.2-5.31V7.5c0-1.981-0.8-3.91-2.2-5.3C374.9,0.8,372.97,0,371,0
	H181c-1.98,0-3.91,0.8-5.3,2.2c-1.4,1.39-2.2,3.319-2.2,5.3v33.84c0,4.14,3.36,7.51,7.5,7.51c4.13,0,7.5-3.37,7.5-7.51V15h175
	v145.01H271c-0.95,0-1.91,0.19-2.78,0.54l-39.72,15.87v-8.91c0-1.97-0.8-3.9-2.2-5.3c-1.39-1.4-3.33-2.2-5.3-2.2h-32.5V71.34
	c0-4.13-3.37-7.49-7.5-7.49c-4.14,0-7.5,3.36-7.5,7.49v96.17c0,1.98,0.8,3.91,2.2,5.31C177.089,174.21,179.02,175.01,180.999,175.01
	z"/>
<path d="M498.5,464.502c0-20.678-16.823-37.5-37.501-37.5h-22.496l0.008-16.605c18.366-16.047,29.988-39.624,29.988-65.866v-28.774
	c5.86-29.478,3.172-51.338-8.002-64.968c-7.043-8.592-15.773-11.867-21.998-13.092v-33.194c0-4.143-3.357-7.5-7.5-7.5
	c-2.846,0-5.762-0.016-8.73-0.031c-3.103-0.017-6.264-0.033-9.461-0.033c-36.182,0-76.803,2.289-100.933,29.622
	c-17.357,19.661-23.367,48.697-18.377,88.765v29.206c0,26.249,11.628,49.832,30.002,65.879v16.593H301
	c-20.678,0-37.5,16.822-37.5,37.5V504.5c0,4.143,3.357,7.5,7.5,7.5h30h50h139.999c4.143,0,7.5-3.357,7.5-7.5v-39.959
	C498.499,464.527,498.5,464.516,498.5,464.502z M423.501,430.486l-23.031,15.358l-11.971-5.98v-8.187
	c12.617-1.076,24.477-4.84,35.007-10.715L423.501,430.486z M323.122,236.487c19.997-22.653,56.78-24.55,89.688-24.55
	c3.17,0,6.304,0.017,9.381,0.033c0.438,0.002,0.874,0.004,1.31,0.007v32.525c0,2.07,0.819,4.051,2.328,5.469
	c1.51,1.418,3.503,2.152,5.567,2.02c0.683-0.04,10.571-0.147,17.503,8.307c5.119,6.245,7.673,15.827,7.616,28.25l-3.26-6.518
	c-1.651-3.305-5.466-4.916-8.985-3.792c-0.446,0.142-44.884,14.206-70.518,14.206c-24.588,0-46.836-13.331-47.049-13.46
	c-3.297-2.018-7.589-1.194-9.91,1.899l-9.898,13.198C306.29,268.722,311.723,249.398,323.122,236.487z M308.5,344.53v-27.589
	l16.42-21.893c9.248,4.599,28.004,12.396,48.832,12.396c22.214,0,55.286-9.022,68.919-13.042l10.829,21.659v28.469
	c0,39.961-32.523,72.472-72.5,72.472S308.5,384.491,308.5,344.53z M373.5,431.678v7.746l-16.221,6.488l-18.777-15.016v-9.929
	C349.029,426.84,360.886,430.602,373.5,431.678z M308.501,497v-15H343.5v15H308.501z M483.499,497H358.5v-22.5
	c0-4.143-3.357-7.5-7.5-7.5h-49.998c-4.143,0-7.5,3.357-7.5,7.5V497h-15v-32.498c0-12.406,10.094-22.5,22.5-22.5h27.37
	l22.952,18.353c0.066,0.053,0.141,0.088,0.208,0.139c0.212,0.157,0.429,0.303,0.654,0.437c0.136,0.081,0.271,0.16,0.409,0.231
	c0.215,0.109,0.436,0.203,0.658,0.291c0.149,0.059,0.296,0.123,0.447,0.172c0.247,0.08,0.5,0.137,0.755,0.191
	c0.127,0.027,0.251,0.065,0.378,0.086c0.387,0.062,0.779,0.098,1.176,0.098c0.262,0,0.523-0.018,0.787-0.045
	c0.046-0.006,0.092-0.015,0.139-0.021c0.206-0.025,0.411-0.059,0.617-0.102c0.084-0.018,0.167-0.04,0.251-0.061
	c0.161-0.04,0.322-0.084,0.482-0.136c0.104-0.033,0.208-0.069,0.312-0.107c0.064-0.023,0.131-0.041,0.195-0.067l21.866-8.746
	l17.001,8.492c0.115,0.058,0.234,0.099,0.35,0.15c0.136,0.059,0.269,0.123,0.406,0.174c0.188,0.069,0.376,0.122,0.565,0.175
	c0.091,0.025,0.18,0.059,0.271,0.08c0.266,0.064,0.531,0.111,0.799,0.146c0.023,0.002,0.044,0.008,0.066,0.012
	c0.296,0.035,0.593,0.055,0.888,0.055c0.353,0,0.702-0.026,1.049-0.075c0.151-0.022,0.301-0.064,0.452-0.095
	c0.191-0.039,0.384-0.072,0.571-0.125c0.152-0.045,0.302-0.107,0.452-0.16c0.187-0.067,0.373-0.131,0.554-0.211
	c0.132-0.061,0.26-0.134,0.39-0.201c0.195-0.102,0.389-0.205,0.575-0.324c0.04-0.026,0.084-0.043,0.124-0.07l28.099-18.736H461
	c12.398,0,22.486,10.08,22.5,22.475c0,0-0.001,0.017-0.001,0.025V497z"/>
<path d="M210.999,427.002h-32.496l0.005-9.051c24.049-15.605,39.991-42.686,39.991-73.421v-16.528l9.977,3.563
	c0.82,0.293,1.673,0.437,2.522,0.437c1.527,0,3.04-0.467,4.321-1.369c1.994-1.405,3.18-3.691,3.18-6.131
	c0-45.011-8.666-78.434-25.758-99.337c-14.041-17.173-33.342-25.88-57.368-25.88c-28.005,0-54.249,12.031-63.574,16.814
	l-17.576-8.368c-2.232-1.063-4.844-0.958-6.981,0.28c-3.008,1.741-29.189,18.954-23.743,86.77v49.749
	c0,30.739,15.946,57.822,40,73.427v9.045H51c-20.678,0-37.5,16.822-37.5,37.5V504.5c0,4.143,3.358,7.5,7.5,7.5h219.998
	c4.142,0,7.5-3.357,7.5-7.5v-39.959c0-0.014,0.002-0.025,0.002-0.039C248.499,443.824,231.677,427.002,210.999,427.002z
	 M72.221,223.391l16.555,7.882c2.221,1.059,4.825,0.955,6.959-0.268c0.292-0.168,29.521-16.72,59.639-16.72
	c42.943,0,65.776,33.469,67.954,99.513L93.522,267.439c-0.818-0.292-1.671-0.436-2.522-0.436c-1.153,0-2.302,0.266-3.354,0.792
	l-29.799,14.899C56.754,245.12,67.146,228.983,72.221,223.391z M58.5,344.53v-45.394l32.992-16.495L203.5,322.644v21.886
	c0,39.961-32.523,72.472-72.5,72.472S58.5,384.491,58.5,344.53z M130.999,432.002c11.481,0,22.45-2.227,32.505-6.262l-0.005,8.758
	v0.002v0.001c0,17.921-14.58,32.5-32.5,32.5s-32.5-14.579-32.5-32.5v-8.759C108.553,429.776,119.521,432.002,130.999,432.002z
	 M233.497,497H28.5v-32.498c0-12.406,10.093-22.5,22.5-22.5h33.098c3.608,22.639,23.263,39.999,46.902,39.999
	s43.294-17.36,46.902-39.999H211c12.398,0,22.485,10.08,22.499,22.475c0,0-0.001,0.017-0.001,0.025L233.497,497L233.497,497z"/>
<path d="M283.5,94.117c5.812-1.367,11.149-4.318,15.479-8.647c6.13-6.13,9.511-14.29,9.521-22.98
	c-0.01-8.681-3.391-16.841-9.521-22.98c-6.14-6.13-14.3-9.51-22.979-9.52c-8.69,0.01-16.851,3.39-22.98,9.52
	c-6.14,6.14-9.52,14.3-9.52,22.98c0,4.14,3.36,7.5,7.5,7.5c4.13,0,7.5-3.36,7.5-7.5v-0.011c0.01-4.67,1.83-9.05,5.13-12.35
	c3.3-3.3,7.689-5.13,12.37-5.14c4.67,0.01,9.06,1.84,12.359,5.14c3.31,3.3,5.131,7.689,5.141,12.36
	c-0.01,4.68-1.83,9.069-5.141,12.369c-3.277,3.277-7.63,5.102-12.264,5.136c-0.032-0.001-0.064-0.005-0.096-0.005
	c-4.141,0-7.5,3.369-7.5,7.51v20c0,4.13,3.359,7.5,7.5,7.5c4.13,0,7.5-3.37,7.5-7.5V94.117H283.5z"/>
<path d="M276,120c-4.141,0-7.5,3.359-7.5,7.5v9.99c0,4.14,3.359,7.5,7.5,7.5c4.13,0,7.5-3.36,7.5-7.5v-9.99
	C283.5,123.359,280.129,120,276,120z"/>
<g>
</g>
<g>
</g>
<g>
</g>
<g>
</g>
<g>
</g>
<g>
</g>
<g>
</g>
<g>
</g>
<g>
</g>
<g>
</g>
<g>
</g>
<g>
</g>
<g>
</g>
<g>
</g>
<g>
</g>
</svg>
